<svg width="128" height="40" viewBox="0 0 128 40" fill="none" xmlns="http://www.w3.org/2000/svg">
<rect x="0.5" y="0.5" width="127" height="39" fill="white"/>
<rect x="0.5" y="0.5" width="127" height="39" stroke="black"/>
<path d="M23.8298 12.58H18.8898V25.88H17.9898L17.9698 12.58H13.0098V11.86H23.8298V12.58ZM37.4905 25.76H36.4705L32.5105 19.84H26.9305V25.76L26.0505 25.74V11.84H32.1905C34.9905 11.84 36.7305 13.6 36.7305 15.8C36.7305 17.88 35.0105 19.36 33.4305 19.72L37.4905 25.76ZM32.0705 19.12C33.8905 19.12 35.7705 18.1 35.7705 15.8C35.7705 13.44 33.8905 12.54 32.0705 12.54H26.9305V19.12H32.0705ZM49.7305 11.86L44.4505 20.32L44.4305 25.88H43.5305L43.5505 20.36L38.2505 11.86H39.1105L43.9905 19.58L48.8505 11.86H49.7305ZM72.6504 25.8H71.7704L71.7504 13.3L66.7704 25.76H65.7304L60.7704 13.36V25.8H59.8904V11.86H61.0904L66.2704 24.78L71.4304 11.86H72.6504V25.8ZM81.8043 11.48C85.5643 11.48 88.0443 14.58 88.0443 18.8C88.0443 23.04 85.5643 26.14 81.8043 26.14C78.0443 26.14 75.5843 23.04 75.5843 18.8C75.5843 14.58 78.0443 11.48 81.8043 11.48ZM81.8043 25.3C84.9443 25.3 87.0843 22.5 87.0843 18.8C87.0843 15.12 84.9443 12.32 81.8043 12.32C78.6643 12.32 76.5443 15.12 76.5443 18.8C76.5443 22.5 78.6643 25.3 81.8043 25.3ZM102.432 25.76H101.412L97.452 19.84H91.872V25.76L90.992 25.74V11.84H97.132C99.932 11.84 101.672 13.6 101.672 15.8C101.672 17.88 99.952 19.36 98.372 19.72L102.432 25.76ZM97.012 19.12C98.832 19.12 100.712 18.1 100.712 15.8C100.712 13.44 98.832 12.54 97.012 12.54H91.872V19.12H97.012ZM114.452 25.76L104.492 25.74V11.86H114.252V12.58H105.372V18.18H113.932V18.92H105.372V25.04L114.452 25.02V25.76Z" fill="black"/>
</svg>
