<svg width="1202" height="362" viewBox="0 0 1202 362" fill="none" xmlns="http://www.w3.org/2000/svg">
<rect x="0.75" y="120.75" width="150" height="180" fill="white"/>
<rect x="0.75" y="120.75" width="150" height="180" stroke="black" stroke-width="1.5"/>
<path d="M108.829 193.65V160.05H114.079V252.45H108.829V197.85H84.6791V193.65H108.829ZM95.1791 228.93L91.5041 232.71C88.0391 230.61 68.8241 218.22 63.4691 198.06C59.6891 218.22 40.0541 232.395 35.6441 234.705L31.4441 231.135C40.8941 226.095 60.8441 212.235 60.8441 182.625V165.72H66.0941V182.625C66.0941 212.655 90.0341 225.99 95.1791 228.93Z" fill="black"/>
<rect x="150.75" y="180.75" width="150" height="180" fill="white"/>
<rect x="150.75" y="180.75" width="150" height="180" stroke="black" stroke-width="1.5"/>
<path d="M271.954 265.515H228.799V277.17H258.829V295.86H197.929V307.2H261.559V311.4H192.679V291.66H253.579V281.37H192.679V277.17H223.549V265.515H179.554V261.315H271.954V265.515ZM260.194 236.115C260.194 245.25 247.699 252.6 225.754 252.6C203.914 252.6 191.314 245.25 191.314 236.115C191.314 226.98 203.914 219.735 225.754 219.735C247.699 219.735 260.194 227.61 260.194 236.115ZM254.734 236.115C254.734 228.87 242.239 223.935 225.754 223.935C209.059 223.935 196.774 228.87 196.774 236.115C196.774 243.15 209.059 248.295 225.754 248.295C242.239 248.295 254.734 243.15 254.734 236.115Z" fill="black"/>
<rect x="300.75" y="120.75" width="150" height="180" fill="white"/>
<rect x="300.75" y="120.75" width="150" height="180" stroke="black" stroke-width="1.5"/>
<path d="M350.134 222H355.384V246.15H413.134V250.35H350.134V222ZM408.829 193.02V227.25H403.579V160.05H408.829V188.82H423.319V193.02H408.829ZM363.889 173.805C363.889 193.65 384.889 207.195 392.134 210.765L388.774 214.65C385.624 213.495 367.564 200.895 361.264 185.46C354.754 204.36 337.324 214.545 334.174 216.12L330.079 212.76C338.164 209.82 358.639 193.86 358.639 173.805V163.2H363.889V173.805Z" fill="black"/>
<rect x="450.75" y="60.75" width="150" height="180" fill="white"/>
<rect x="450.75" y="60.75" width="150" height="180" stroke="black" stroke-width="1.5"/>
<path d="M559.354 100.05H564.604V192.45H559.354V100.05ZM511.369 115.275H487.744V111.075H540.979V115.275H516.619V125.46C516.619 152.865 537.724 166.725 542.344 169.14L539.089 173.34C536.044 171.555 517.984 159.165 513.994 139.53C510.319 158.85 491.419 173.025 486.694 175.86L482.704 172.29C493.519 167.25 511.369 149.4 511.369 125.46V115.275Z" fill="black"/>
<rect x="600.75" y="0.75" width="150" height="180" fill="white"/>
<rect x="600.75" y="0.75" width="150" height="180" stroke="black" stroke-width="1.5"/>
<path d="M707.884 85.2V132.45H702.634V40.05H707.884V80.895H723.844V85.2H707.884ZM633.334 112.29C658.324 101.055 673.129 77.745 675.229 55.8H639.004V51.6H681.109C678.484 81.84 661.054 103.89 637.639 115.545L633.334 112.29Z" fill="black"/>
<rect x="750.75" y="150.75" width="150" height="180" fill="white"/>
<rect x="750.75" y="150.75" width="150" height="180" stroke="black" stroke-width="1.5"/>
<path d="M827.329 214.2C827.329 205.065 821.029 197.925 808.849 197.925C796.879 197.925 790.369 205.275 790.369 214.2C790.369 223.23 796.984 230.475 808.849 230.475C820.924 230.475 827.329 223.23 827.329 214.2ZM832.894 211.05H857.254V190.05H862.504V238.98H857.254V215.25H833.104C832.474 226.59 822.814 235.2 808.849 235.2C794.569 235.2 784.594 226.065 784.594 214.2C784.594 202.335 794.464 192.99 808.849 192.99C821.869 192.99 831.214 200.76 832.894 211.05ZM865.444 281.4H799.504V260.82H857.359V249.375H798.979V245.175H862.609V265.02H804.754V277.2H865.444V281.4Z" fill="black"/>
<rect x="900.75" y="90.75" width="150" height="180" fill="white"/>
<rect x="900.75" y="90.75" width="150" height="180" stroke="black" stroke-width="1.5"/>
<path d="M942.154 141.075V176.04H974.599V141.075H942.154ZM936.904 136.875H979.849V180.24H936.904V136.875ZM947.929 192H953.179V216.15H1011.98V220.35H947.929V192ZM1007.78 163.02V197.25H1002.53V130.05H1007.78V158.61H1022.48V163.02H1007.78Z" fill="black"/>
<rect x="1050.75" y="150.75" width="150" height="180" fill="white"/>
<rect x="1050.75" y="150.75" width="150" height="180" stroke="black" stroke-width="1.5"/>
<path d="M1138.35 227.115V192.36H1143.6V278.25H1138.35V231.315H1118.4V227.115H1138.35ZM1158.3 190.05H1163.55V282.45H1158.3V190.05ZM1130.9 258.405C1124.6 259.35 1110.74 260.4 1099.71 260.4H1089V202.65H1121.66V206.85H1094.25V256.2H1100.03C1108.85 256.2 1124.6 255.36 1130.9 254.205V258.405Z" fill="black"/>
</svg>
