<svg width="62" height="22" viewBox="0 0 62 22" fill="none" xmlns="http://www.w3.org/2000/svg">
<path d="M13.5081 12.2318C13.7061 11.5498 13.9261 10.6918 14.1901 9.7678L9.83405 10.1198L10.8021 7.5018L14.8941 7.1718C15.0481 6.6438 15.2021 6.1158 15.3341 5.5878L11.5281 5.8958C9.61405 8.3818 7.65605 10.4278 5.96205 12.0558L0.880053 12.2978C4.09205 9.4158 7.08405 5.9838 8.82205 3.7178C7.52405 3.8278 4.29005 4.0918 2.04605 4.2898L2.90405 1.4958C5.54405 1.2978 12.2321 0.8358 15.0041 0.6818C14.4981 1.5618 13.9921 2.3978 13.4641 3.1898L16.0601 2.9918C16.3461 1.9578 16.6101 1.0558 16.8301 0.351801L21.2301 -0.000200152C20.1741 3.0578 18.2381 8.9318 17.2921 12.0338L13.5081 12.2318ZM1.27605 16.7418C2.64005 13.9258 6.60005 12.0558 11.1101 12.1438C15.2241 12.2318 17.5121 14.4978 16.5881 16.8738C15.2681 20.3938 11.3301 21.9338 6.53405 21.8018C1.89205 21.6918 5.27296e-05 19.3818 1.27605 16.7418ZM5.08205 16.9618C4.48805 18.0618 5.52205 18.8758 7.54605 18.8538C9.79005 18.9198 11.7481 18.1718 12.3861 16.7858C12.8921 15.6418 12.0121 15.0038 9.74605 15.0038C7.54605 15.0258 5.65405 15.8838 5.08205 16.9618ZM33.7463 12.3418C34.5823 9.3278 36.2323 3.1238 37.0683 0.351801L41.4683 -0.000200152L39.7963 4.9938L42.2603 4.7078L41.3363 7.3258L38.9603 7.6118C38.4103 9.3278 37.9043 10.9338 37.5303 12.1438L33.7463 12.3418ZM19.7323 12.8698C23.1423 9.6798 26.5963 3.8938 28.4443 0.6378L32.2943 0.4178C31.5903 1.8918 30.5783 3.8278 29.4563 5.7638L31.6123 5.3018C31.8323 7.3918 32.6023 9.4818 33.6583 11.2638L29.3243 11.6598C28.7743 10.6038 28.4003 9.2178 28.2243 7.8318C27.0143 9.7678 25.7603 11.5058 24.7043 12.5398L19.7323 12.8698ZM21.5143 16.8518C22.8563 14.1018 26.8383 12.2758 31.3483 12.3638C35.4623 12.4518 37.7283 14.6518 36.8263 16.9838C35.5283 20.4378 31.5683 21.9338 26.7723 21.8018C22.1303 21.6918 20.2603 19.4478 21.5143 16.8518ZM25.3203 17.0718C24.7483 18.1278 25.7603 18.8758 27.7843 18.8538C30.0283 18.9198 32.0083 18.2158 32.6243 16.8958C33.1083 15.8178 32.2503 15.2238 29.9843 15.2238C27.7843 15.2458 25.8703 16.0378 25.3203 17.0718ZM42.3798 13.5298C43.3258 10.7578 44.4038 7.3918 45.2398 4.9498C44.5578 5.0158 43.9858 5.0818 43.5678 5.1478L44.5798 1.8258C47.7478 1.6498 58.5058 0.9018 61.3438 0.747799L60.3318 3.6078C58.9018 3.6958 53.9738 4.1138 49.7058 4.5098C49.0898 6.3798 48.3638 8.8218 48.0998 9.8118C50.8058 9.5918 57.6698 8.9758 60.3318 8.7118L59.1878 11.6598C57.6698 11.8138 55.6458 12.0338 53.4458 12.2758L52.2138 16.9398C55.6458 16.6758 58.7258 16.4118 59.6498 16.3458L58.9678 19.1178C57.1418 19.2718 42.4458 20.7238 39.9598 20.9878L40.7078 17.9078C41.4558 17.8418 44.3158 17.5998 47.5938 17.3358C48.0118 15.9718 48.5398 14.1678 48.9578 12.7818C46.5378 13.0458 44.2058 13.3098 42.3798 13.5298Z" fill="#FF0561"/>
</svg>
