<svg width="1202" height="362" viewBox="0 0 1202 362" fill="none" xmlns="http://www.w3.org/2000/svg">
<rect x="0.75" y="180.75" width="150" height="180" fill="white"/>
<rect x="0.75" y="180.75" width="150" height="180" stroke="black" stroke-width="1.5"/>
<path d="M108.829 253.65V220.05H114.079V312.45H108.829V257.85H84.6791V253.65H108.829ZM95.1791 288.93L91.5041 292.71C88.0391 290.61 68.8241 278.22 63.4691 258.06C59.6891 278.22 40.0541 292.395 35.6441 294.705L31.4441 291.135C40.8941 286.095 60.8441 272.235 60.8441 242.625V225.72H66.0941V242.625C66.0941 272.655 90.0341 285.99 95.1791 288.93Z" fill="black"/>
<rect x="150.75" y="120.75" width="150" height="180" fill="white"/>
<rect x="150.75" y="120.75" width="150" height="180" stroke="black" stroke-width="1.5"/>
<path d="M271.954 205.515H228.799V217.17H258.829V235.86H197.929V247.2H261.559V251.4H192.679V231.66H253.579V221.37H192.679V217.17H223.549V205.515H179.554V201.315H271.954V205.515ZM260.194 176.115C260.194 185.25 247.699 192.6 225.754 192.6C203.914 192.6 191.314 185.25 191.314 176.115C191.314 166.98 203.914 159.735 225.754 159.735C247.699 159.735 260.194 167.61 260.194 176.115ZM254.734 176.115C254.734 168.87 242.239 163.935 225.754 163.935C209.059 163.935 196.774 168.87 196.774 176.115C196.774 183.15 209.059 188.295 225.754 188.295C242.239 188.295 254.734 183.15 254.734 176.115Z" fill="black"/>
<rect x="300.75" y="60.75" width="150" height="180" fill="white"/>
<rect x="300.75" y="60.75" width="150" height="180" stroke="black" stroke-width="1.5"/>
<path d="M350.134 162H355.384V186.15H413.134V190.35H350.134V162ZM408.829 133.02V167.25H403.579V100.05H408.829V128.82H423.319V133.02H408.829ZM363.889 113.805C363.889 133.65 384.889 147.195 392.134 150.765L388.774 154.65C385.624 153.495 367.564 140.895 361.264 125.46C354.754 144.36 337.324 154.545 334.174 156.12L330.079 152.76C338.164 149.82 358.639 133.86 358.639 113.805V103.2H363.889V113.805Z" fill="black"/>
<rect x="450.75" y="0.75" width="150" height="180" fill="white"/>
<rect x="450.75" y="0.75" width="150" height="180" stroke="black" stroke-width="1.5"/>
<path d="M559.354 40.05H564.604V132.45H559.354V40.05ZM511.369 55.275H487.744V51.075H540.979V55.275H516.619V65.46C516.619 92.865 537.724 106.725 542.344 109.14L539.089 113.34C536.044 111.555 517.984 99.165 513.994 79.53C510.319 98.85 491.419 113.025 486.694 115.86L482.704 112.29C493.519 107.25 511.369 89.4 511.369 65.46V55.275Z" fill="black"/>
<rect x="600.75" y="120.75" width="150" height="180" fill="white"/>
<rect x="600.75" y="120.75" width="150" height="180" stroke="black" stroke-width="1.5"/>
<path d="M707.884 205.2V252.45H702.634V160.05H707.884V200.895H723.844V205.2H707.884ZM633.334 232.29C658.324 221.055 673.129 197.745 675.229 175.8H639.004V171.6H681.109C678.484 201.84 661.054 223.89 637.639 235.545L633.334 232.29Z" fill="black"/>
<rect x="750.75" y="0.75" width="150" height="180" fill="white"/>
<rect x="750.75" y="0.75" width="150" height="180" stroke="black" stroke-width="1.5"/>
<path d="M827.329 64.2C827.329 55.065 821.029 47.925 808.849 47.925C796.879 47.925 790.369 55.275 790.369 64.2C790.369 73.23 796.984 80.475 808.849 80.475C820.924 80.475 827.329 73.23 827.329 64.2ZM832.894 61.05H857.254V40.05H862.504V88.98H857.254V65.25H833.104C832.474 76.59 822.814 85.2 808.849 85.2C794.569 85.2 784.594 76.065 784.594 64.2C784.594 52.335 794.464 42.99 808.849 42.99C821.869 42.99 831.214 50.76 832.894 61.05ZM865.444 131.4H799.504V110.82H857.359V99.375H798.979V95.175H862.609V115.02H804.754V127.2H865.444V131.4Z" fill="black"/>
<rect x="900.75" y="120.75" width="150" height="180" fill="white"/>
<rect x="900.75" y="120.75" width="150" height="180" stroke="black" stroke-width="1.5"/>
<path d="M942.154 171.075V206.04H974.599V171.075H942.154ZM936.904 166.875H979.849V210.24H936.904V166.875ZM947.929 222H953.179V246.15H1011.98V250.35H947.929V222ZM1007.78 193.02V227.25H1002.53V160.05H1007.78V188.61H1022.48V193.02H1007.78Z" fill="black"/>
<rect x="1050.75" y="60.75" width="150" height="180" fill="white"/>
<rect x="1050.75" y="60.75" width="150" height="180" stroke="black" stroke-width="1.5"/>
<path d="M1138.35 137.115V102.36H1143.6V188.25H1138.35V141.315H1118.4V137.115H1138.35ZM1158.3 100.05H1163.55V192.45H1158.3V100.05ZM1130.9 168.405C1124.6 169.35 1110.74 170.4 1099.71 170.4H1089V112.65H1121.66V116.85H1094.25V166.2H1100.03C1108.85 166.2 1124.6 165.36 1130.9 164.205V168.405Z" fill="black"/>
</svg>
