<svg width="67" height="27" viewBox="0 0 67 27" fill="none" xmlns="http://www.w3.org/2000/svg">
<path d="M24.8 13.7999V15.6499C22.3 15.4999 20.775 13.8499 20.775 10.6499V7.4749H15.9V5.6249H20.775V-9.92417e-05H22.825V10.2499C22.825 12.2249 23.45 13.4999 24.8 13.7999ZM2.20002 15.6499H2.44129e-05V13.7999H1.95002C5.60002 13.7999 7.70002 11.9999 7.70002 8.8499V7.4749H2.82502V5.6249H14.55V7.4749H9.82502V8.8499C9.82502 11.8749 11.8 13.6749 15.175 13.7499V15.5499C12.3 15.5499 9.97503 14.3499 8.77503 12.2749C7.60002 14.4249 5.20002 15.6499 2.20002 15.6499ZM13.725 18.3999V24.4749H22.625V26.3249H12.8C12.075 26.3249 11.675 25.9249 11.675 25.1999V18.3999H13.725ZM41.0309 10.3999V-9.92417e-05H43.0809V5.6249H46.5809V7.4749H43.0809V10.3249C43.0809 12.4749 43.6809 13.7999 45.6809 13.7999H46.3059V15.6499H45.6559C42.6559 15.6499 41.0309 13.8999 41.0309 10.3999ZM31.0559 13.7999H38.0059V15.6499H24.7559V13.7999H28.1059C27.8559 13.4749 27.7059 13.0499 27.7059 12.2249V8.6499H34.6559V5.6499H27.7059V3.7999H35.5809C36.3059 3.7999 36.7059 4.1999 36.7059 4.9249V10.4749H29.7559V12.2999C29.7559 13.3749 30.1559 13.7999 31.0559 13.7999ZM57.2397 9.5249V13.7999H66.0647V15.6499H46.2647V13.7999H55.1897V9.5249H51.7397C51.0147 9.5249 50.6147 9.1249 50.6147 8.3999V0.624902H61.8397V2.4749H52.6647V7.6749H61.8397V9.5249H57.2397Z" fill="#00B7AB"/>
</svg>
